<svg width="14" height="14" viewBox="0 0 14 14" fill="none" xmlns="http://www.w3.org/2000/svg">
<g clip-path="url(#clip0_21_337)">
<path fill-rule="evenodd" clip-rule="evenodd" d="M7 0C10.8661 0 14 3.21295 14 7.17705C14 10.3474 11.9966 13.0368 9.2169 13.9867C8.862 14.0574 8.736 13.8332 8.736 13.6421C8.736 13.4055 8.7444 12.6328 8.7444 11.6724C8.7444 11.0032 8.5204 10.5664 8.2691 10.3438C9.828 10.166 11.466 9.55904 11.466 6.80244C11.466 6.01844 11.1944 5.37867 10.745 4.87607C10.8178 4.69477 11.0579 3.96477 10.6764 2.97637C10.6764 2.97637 10.0898 2.78406 8.7535 3.71226C8.1942 3.55336 7.595 3.47341 7 3.47061C6.405 3.47341 5.8065 3.55336 5.2479 3.71226C3.9102 2.78406 3.3222 2.97637 3.3222 2.97637C2.9421 3.96477 3.1822 4.69477 3.2543 4.87607C2.807 5.37867 2.5333 6.01844 2.5333 6.80244C2.5333 9.55204 4.1678 10.1683 5.7225 10.3496C5.5223 10.5288 5.341 10.8449 5.278 11.309C4.879 11.4924 3.8654 11.8098 3.241 10.7129C3.241 10.7129 2.8707 10.0233 2.1679 9.97295C2.1679 9.97295 1.4854 9.96388 2.1203 10.4091C2.1203 10.4091 2.5788 10.6296 2.8973 11.4591C2.8973 11.4591 3.3082 12.7401 5.2556 12.3061C5.2591 12.906 5.2654 13.4713 5.2654 13.6421C5.2654 13.8318 5.1366 14.0539 4.7873 13.9874C2.0055 13.0389 0 10.3481 0 7.17705C0 3.21295 3.1346 0 7 0Z" fill="#CFCFCF" fill-opacity="0.5"/>
</g>
<defs>
<clipPath id="clip0_21_337">
<rect width="14" height="14" fill="white"/>
</clipPath>
</defs>
</svg>
