<svg width="78" height="14" viewBox="0 0 78 14" fill="none" xmlns="http://www.w3.org/2000/svg">
<g clip-path="url(#clip0_21_343)">
<path d="M23.081 10.64V6.52615C23.081 6.20307 22.949 6.0523 22.5969 6.0523C22.2229 6.0523 21.5628 6.2677 21.0347 6.5477V10.64H19.5386V4.75999H20.6827L20.8367 5.25539C21.5848 4.88923 22.5309 4.63077 23.235 4.63077C23.8071 4.63077 24.1812 4.8677 24.3792 5.25539C25.1053 4.88923 26.0734 4.63077 26.7995 4.63077C27.7896 4.63077 28.1637 5.31999 28.1637 6.37538V10.64H26.6675V6.52615C26.6675 6.20307 26.5355 6.0523 26.1834 6.0523C25.8094 6.0523 25.0833 6.28923 24.6212 6.5477V10.64H23.081Z" fill="#73757F"/>
<path d="M32.2121 9.56308C32.7842 9.56308 33.4003 9.47692 34.0604 9.28307L34.3024 10.4031C33.6203 10.6615 32.8062 10.7692 32.1021 10.7692C30.2099 10.7692 29.5498 9.90769 29.5498 8.50769V6.95692C29.5498 5.70769 30.1218 4.6523 32.0361 4.6523C33.9723 4.6523 34.3904 5.75076 34.3904 7.02153V8.27077H31.046V8.5723C31.024 9.28307 31.288 9.56308 32.2121 9.56308ZM31.024 7.08616H32.9382V6.80615C32.9382 6.24615 32.7622 5.85846 32.0141 5.85846C31.266 5.85846 31.024 6.24615 31.024 6.80615V7.08616Z" fill="#73757F"/>
<path d="M35.4907 6.72C35.4907 5.40616 36.0848 4.6523 37.471 4.6523C37.999 4.6523 38.6151 4.71693 39.0771 4.82462V2.36923L40.5733 2.15385V10.64H39.3852L39.2312 10.1446C38.7031 10.5108 38.087 10.7692 37.3389 10.7692C36.1288 10.7692 35.4907 10.0585 35.4907 8.72308V6.72ZM39.0771 6.0523C38.6811 5.96615 38.1751 5.90154 37.735 5.90154C37.1849 5.90154 36.9869 6.16 36.9869 6.67692V8.74461C36.9869 9.21846 37.1629 9.49846 37.735 9.49846C38.2191 9.49846 38.7691 9.26153 39.0771 8.96V6.0523Z" fill="#73757F"/>
<path d="M42.3115 3.94154V2.24001H43.8077V3.94154H42.3115ZM42.3115 10.64V4.75999H43.8077V10.64H42.3115Z" fill="#73757F"/>
<path d="M49.9903 10.64H48.7581L48.6481 10.2308C48.0981 10.5754 47.46 10.7477 46.8659 10.7477C45.7658 10.7477 45.3037 10.0154 45.3037 9.00308C45.3037 7.79692 45.8318 7.34461 47.0639 7.34461H48.5161V6.72C48.5161 6.07385 48.3401 5.83692 47.372 5.83692C46.8219 5.83692 46.2278 5.90155 45.6998 6.00924L45.5237 4.88924C46.0958 4.71693 46.9099 4.60924 47.592 4.60924C49.4843 4.60924 50.0343 5.25538 50.0343 6.74154V10.64H49.9903ZM48.4941 8.42154H47.394C46.9099 8.42154 46.7559 8.55077 46.7559 9.00308C46.7559 9.41231 46.8879 9.58462 47.35 9.58462C47.79 9.58462 48.2081 9.43384 48.4941 9.28307V8.42154Z" fill="#73757F"/>
<path d="M53.4667 10.7692C52.8287 10.7692 51.9485 10.6185 51.3984 10.4246L51.6185 9.30462C52.1245 9.45539 52.7846 9.56308 53.4007 9.56308C54.0608 9.56308 54.1708 9.41231 54.1708 8.98154C54.1708 8.61539 54.1048 8.44307 53.1147 8.20615C51.6405 7.86153 51.4645 7.49538 51.4645 6.35385C51.4645 5.16923 51.9925 4.6523 53.7087 4.6523C54.2588 4.6523 54.9849 4.71692 55.513 4.86769L55.3589 6.03077C54.8969 5.94461 54.1708 5.85846 53.7087 5.85846C53.0486 5.85846 52.9386 6.00922 52.9386 6.37538C52.9386 6.84922 52.9827 6.89231 53.7968 7.08616C55.469 7.51693 55.645 7.73231 55.645 8.93846C55.645 10.08 55.271 10.7692 53.4667 10.7692Z" fill="#73757F"/>
<path d="M60.31 10.5323C59.9799 10.6615 59.3638 10.7692 58.9898 10.7692C57.8897 10.7692 57.3396 10.2523 57.3396 9.21846V5.94461H56.4375V4.78154H57.3396V3.31693L58.8358 3.10154V4.75999H60.376L60.288 5.92308H58.8358V9.00307C58.8358 9.32615 58.9898 9.52 59.3859 9.52C59.6059 9.52 59.87 9.47692 60.134 9.39076L60.31 10.5323Z" fill="#73757F"/>
<path d="M65.9644 10.64H64.7323L64.6223 10.2308C64.0722 10.5754 63.4341 10.7477 62.84 10.7477C61.7399 10.7477 61.2778 10.0154 61.2778 9.00308C61.2778 7.79692 61.8059 7.34461 63.0381 7.34461H64.4902V6.72C64.4902 6.07385 64.3142 5.83692 63.3461 5.83692C62.796 5.83692 62.202 5.90155 61.6739 6.00924L61.4979 4.88924C62.0699 4.71693 62.884 4.60924 63.5661 4.60924C65.4583 4.60924 66.0084 5.25538 66.0084 6.74154V10.64H65.9644ZM64.4462 8.42154H63.3461C62.862 8.42154 62.708 8.55077 62.708 9.00308C62.708 9.41231 62.84 9.58462 63.3021 9.58462C63.7421 9.58462 64.1602 9.43384 64.4462 9.28307V8.42154Z" fill="#73757F"/>
<path d="M67.2847 8.50769V6.89231C67.2847 5.32 67.9887 4.63077 69.881 4.63077C70.299 4.63077 70.9151 4.69538 71.3552 4.84615L71.1792 6.0523C70.7611 5.94461 70.233 5.90154 69.925 5.90154C69.0669 5.90154 68.8028 6.16 68.8028 6.87077V8.50769C68.8028 9.24 69.0669 9.47692 69.925 9.47692C70.2991 9.47692 70.7391 9.43384 71.1792 9.32615L71.3552 10.5323C70.9591 10.6615 70.387 10.7477 69.881 10.7477C67.9887 10.7692 67.2847 10.1015 67.2847 8.50769Z" fill="#73757F"/>
<path d="M72.7412 10.64V2.3477L74.2374 2.13231V10.6185H72.7412V10.64ZM77.8459 4.75999L76.0857 7.66769L77.9339 10.64H76.2837L74.4795 7.66769L76.1957 4.75999H77.8459Z" fill="#73757F"/>
<path d="M7.78886 0.150773C7.63484 0.150773 7.50282 0.129227 7.3488 0.129227C7.10677 0.129227 6.84276 0.150773 6.60073 0.150773C6.31469 0.19385 6.02862 0.215383 5.74258 0.279999C4.15838 0.603076 2.83823 1.37846 1.8041 2.60615C0.791971 3.79077 0.241922 5.16924 0.175913 6.72C0.15391 7.25847 0.197884 7.77539 0.307898 8.29231C0.373906 8.63692 0.659932 8.85231 1.01198 8.78769C2.42016 8.50769 3.76234 8.07693 5.0385 7.47385C6.46869 6.80616 7.78889 5.96616 8.97704 4.93231C9.87916 4.13539 10.6712 3.25231 11.2433 2.19693C11.4413 1.83077 11.3533 1.46462 11.0013 1.2277C10.5392 0.926158 10.0551 0.710776 9.54908 0.51693C8.97701 0.301545 8.40494 0.172311 7.78886 0.150773ZM4.86247 13.4831C4.95048 13.44 5.01649 13.4185 5.0825 13.3754C5.19251 13.2892 5.30253 13.2031 5.41254 13.0954C6.20464 12.4708 6.93076 11.7815 7.63485 11.0492C8.53696 10.1015 9.32909 9.06769 9.96717 7.92615C10.2312 7.43077 10.4732 6.93538 10.6712 6.41846C10.8473 5.96615 10.9793 5.49231 11.0673 4.99693C11.0893 4.91077 11.0893 4.82461 11.0013 4.80308C10.9573 4.78154 10.8693 4.84616 10.8253 4.88924C10.7152 5.01847 10.6052 5.14769 10.4952 5.27692C9.85713 5.98769 9.13105 6.63385 8.36095 7.21539C7.61286 7.77539 6.82077 8.27078 6.00666 8.70155C5.32457 9.0677 4.64249 9.36923 3.91639 9.64923C3.38832 9.84308 2.83824 10.0154 2.31018 10.1877C2.02414 10.2738 1.73809 10.3385 1.47406 10.4246C1.29804 10.4677 1.25403 10.6185 1.36404 10.7692C1.54007 11.0062 1.69406 11.2431 1.89209 11.4585C2.57418 12.2554 3.43232 12.8369 4.40044 13.2892C4.51046 13.3539 4.68645 13.4185 4.86247 13.4831ZM14.2357 6.93539C14.2357 6.87077 14.2137 6.76308 14.2137 6.65539C14.1917 5.92308 14.0376 5.2123 13.7736 4.54461C13.5976 4.0923 13.3776 3.64 13.0916 3.23077C13.0476 3.18769 12.9815 3.14461 12.9155 3.14461C12.8715 3.14461 12.8275 3.23077 12.8055 3.29538C12.7835 3.42461 12.7615 3.55384 12.7615 3.68307C12.6735 4.63077 12.4535 5.57846 12.1454 6.48307C11.4413 8.5723 10.2972 10.4462 8.86703 12.1262C8.42697 12.6215 7.96489 13.0954 7.52483 13.5908C7.48083 13.6338 7.45881 13.72 7.45881 13.7846C7.48082 13.8708 7.56886 13.8708 7.65687 13.8708C7.8549 13.8492 8.05289 13.8492 8.22891 13.8062C9.96714 13.5046 11.4413 12.7077 12.5855 11.3939C13.6636 10.1015 14.1917 8.63693 14.2357 6.93539Z" fill="url(#paint0_linear_21_343)"/>
<path d="M7.7889 0.150772C8.38298 0.193849 8.97709 0.323082 9.52716 0.516929C10.0332 0.689236 10.5173 0.926157 10.9793 1.2277C11.3314 1.46462 11.4194 1.83077 11.2214 2.19693C10.6493 3.25231 9.85718 4.13539 8.95506 4.93231C7.76691 5.9877 6.44676 6.80616 5.01658 7.47385C3.71841 8.07693 2.37623 8.52923 0.990055 8.78769C0.638009 8.85231 0.351983 8.63692 0.285975 8.29231C0.175961 7.77538 0.131934 7.23693 0.153937 6.72C0.219945 5.16923 0.769994 3.79076 1.78212 2.60615C2.81626 1.39999 4.13646 0.624613 5.72066 0.279998C6.0067 0.215382 6.29271 0.193849 6.57875 0.150772C6.9968 0.150772 7.39285 0.150772 7.7889 0.150772Z" fill="url(#paint1_linear_21_343)"/>
<path d="M4.86268 13.4831C4.68665 13.4185 4.53268 13.3538 4.35666 13.2892C3.38853 12.8585 2.55239 12.2554 1.8483 11.4585C1.65028 11.2431 1.49628 11.0062 1.32026 10.7692C1.21024 10.6185 1.27625 10.4892 1.43027 10.4246C1.71631 10.3385 2.00235 10.2738 2.26639 10.1877C2.81646 10.0154 3.34448 9.84307 3.87255 9.64923C4.59864 9.39077 5.28073 9.0677 5.96282 8.70154C6.79893 8.27077 7.56907 7.77538 8.31716 7.21538C9.08726 6.63385 9.81334 5.98769 10.4514 5.27692C10.5614 5.14769 10.6715 5.01846 10.7815 4.88923C10.8255 4.84616 10.9135 4.80307 10.9575 4.80307C11.0455 4.82461 11.0455 4.91077 11.0235 4.99693C10.9355 5.47077 10.8035 5.94461 10.6275 6.41846C10.4294 6.93538 10.1874 7.4523 9.92333 7.92615C9.28524 9.06769 8.47117 10.1015 7.59106 11.0492C6.90897 11.7815 6.16085 12.4708 5.36875 13.0954C5.25874 13.1815 5.14872 13.2892 5.03871 13.3754C5.01671 13.4185 4.92869 13.44 4.86268 13.4831Z" fill="url(#paint2_linear_21_343)"/>
<path d="M14.2359 6.93539C14.2139 8.63693 13.6638 10.1015 12.5636 11.3723C11.4195 12.6862 9.96733 13.4831 8.20711 13.7846C8.00908 13.8277 7.81104 13.8277 7.63501 13.8492C7.547 13.8492 7.45901 13.8492 7.43701 13.7631C7.41501 13.6985 7.45897 13.6123 7.50297 13.5692C7.94303 13.0738 8.42711 12.6 8.84517 12.1046C10.2754 10.4246 11.4195 8.55077 12.1236 6.46154C12.4316 5.55692 12.6516 4.60923 12.7397 3.66154C12.7617 3.53231 12.7616 3.40308 12.7837 3.27385C12.8057 3.20923 12.8497 3.12308 12.8937 3.12308C12.9377 3.12308 13.0257 3.16616 13.0697 3.20924C13.3557 3.61847 13.5758 4.04923 13.7518 4.52308C14.0158 5.21231 14.1699 5.90154 14.1919 6.63384C14.2139 6.76307 14.2359 6.89231 14.2359 6.93539Z" fill="url(#paint3_linear_21_343)"/>
<path d="M7.78872 0.150767C7.39267 0.150767 6.99664 0.150767 6.60059 0.150767C6.84262 0.150767 7.10663 0.12922 7.34866 0.12922C7.50268 0.107682 7.6567 0.129228 7.78872 0.150767Z" fill="url(#paint4_linear_21_343)"/>
</g>
<defs>
<linearGradient id="paint0_linear_21_343" x1="0.169596" y1="6.9896" x2="14.229" y2="6.9896" gradientUnits="userSpaceOnUse">
<stop stop-color="#0066CC"/>
<stop offset="1" stop-color="#5590E6"/>
</linearGradient>
<linearGradient id="paint1_linear_21_343" x1="0.169626" y1="4.46527" x2="11.3529" y2="4.46527" gradientUnits="userSpaceOnUse">
<stop stop-color="#0066CC"/>
<stop offset="1" stop-color="#5590E6"/>
</linearGradient>
<linearGradient id="paint2_linear_21_343" x1="1.27929" y1="9.14732" x2="11.0691" y2="9.14732" gradientUnits="userSpaceOnUse">
<stop stop-color="#0066CC"/>
<stop offset="1" stop-color="#5590E6"/>
</linearGradient>
<linearGradient id="paint3_linear_21_343" x1="7.44094" y1="8.50521" x2="14.2292" y2="8.50521" gradientUnits="userSpaceOnUse">
<stop stop-color="#0066CC"/>
<stop offset="1" stop-color="#5590E6"/>
</linearGradient>
<linearGradient id="paint4_linear_21_343" x1="6.60505" y1="0.12862" x2="7.7989" y2="0.12862" gradientUnits="userSpaceOnUse">
<stop stop-color="#0066CC"/>
<stop offset="1" stop-color="#5590E6"/>
</linearGradient>
<clipPath id="clip0_21_343">
<rect width="78" height="14" fill="white"/>
</clipPath>
</defs>
</svg>
