<svg width="20" height="20" viewBox="0 0 20 20" fill="none" xmlns="http://www.w3.org/2000/svg">
<g clip-path="url(#clip0_21_262)">
<path d="M10 20C4.48633 20 0 15.5136 0 9.99997C0 4.4863 4.48633 -3.05176e-05 10 -3.05176e-05C15.5137 -3.05176e-05 20 4.4863 20 9.99997C20 15.5136 15.5137 20 10 20ZM10 1.66599C5.4043 1.66599 1.66602 5.40427 1.66602 9.99997C1.66602 14.5957 5.4043 18.334 10 18.334C14.5957 18.334 18.334 14.5957 18.334 9.99997C18.334 5.40427 14.5957 1.66599 10 1.66599Z" fill="#DEDEDE"/>
<path d="M9.16602 13.75C8.95312 13.75 8.74023 13.6679 8.57617 13.5058C8.25 13.1797 8.25 12.6523 8.57617 12.3281L10.9043 9.99997L8.57813 7.67184C8.25195 7.34567 8.25195 6.81833 8.57813 6.49411C8.9043 6.16794 9.43164 6.16794 9.75586 6.49411L12.6719 9.41013C12.998 9.7363 12.998 10.2636 12.6719 10.5879L9.75586 13.5058C9.59375 13.6679 9.37891 13.75 9.16602 13.75Z" fill="#DEDEDE"/>
</g>
<defs>
<clipPath id="clip0_21_262">
<rect width="20" height="20" fill="white"/>
</clipPath>
</defs>
</svg>
